<svg width="150" height="198" viewBox="0 0 150 198" fill="none" xmlns="http://www.w3.org/2000/svg">
<path d="M134.689 0H50.4345C41.9239 0 35.1155 6.79828 35.1155 15.2961V61.1846C35.1155 62.8841 36.8176 64.5837 38.5197 64.5837C40.2218 64.5837 41.9239 62.8841 41.9239 61.1846V27.1931H144.051V161.459H41.9239V137.665C41.9239 135.966 40.2218 134.266 38.5197 134.266C36.8176 134.266 35.1155 135.966 35.1155 137.665V182.704C35.1155 191.202 41.9239 198 50.4345 198H134.689C143.199 198 150.008 191.202 150.008 182.704V15.2961C150.008 6.79828 143.199 0 134.689 0ZM41.0728 20.3949V15.2961C41.0728 10.1974 45.3281 5.9485 50.4345 5.9485H134.689C139.795 5.9485 144.051 10.1974 144.051 15.2961V20.3949H41.0728ZM134.689 192.052H50.4345C45.3281 192.052 41.0728 187.803 41.0728 182.704V167.408H143.199V182.704C143.199 187.803 139.795 192.052 134.689 192.052Z" fill="url(#paint0_linear_7885_3252)"/>
<path d="M92.137 187.804C96.3672 187.804 99.7965 184.38 99.7965 180.156C99.7965 175.932 96.3672 172.508 92.137 172.508C87.9068 172.508 84.4775 175.932 84.4775 180.156C84.4775 184.38 87.9068 187.804 92.137 187.804Z" fill="url(#paint1_linear_7885_3252)"/>
<path d="M92.3214 135.906C71.045 135.906 54.0239 118.911 54.0239 97.6661C54.0239 76.4215 71.045 59.4258 92.3214 59.4258C113.598 59.4258 130.619 76.4215 130.619 97.6661C131.47 118.911 113.598 135.906 92.3214 135.906ZM92.3214 65.3743C74.4492 65.3743 59.9813 79.8206 59.9813 97.6661C59.9813 115.512 74.4492 129.958 92.3214 129.958C110.194 129.958 124.662 115.512 124.662 97.6661C124.662 79.8206 110.194 65.3743 92.3214 65.3743Z" fill="url(#paint2_linear_7885_3252)"/>
<path d="M48.7097 126.165H30.0372C28.4135 126.165 26.7898 124.544 26.7898 122.922C26.7898 121.301 28.4135 119.68 30.0372 119.68H48.7097C50.3334 119.68 51.9571 121.301 51.9571 122.922C51.9571 124.544 50.3334 126.165 48.7097 126.165Z" fill="url(#paint3_linear_7885_3252)"/>
<path d="M21.1082 126.165C22.9017 126.165 24.3556 124.713 24.3556 122.922C24.3556 121.131 22.9017 119.68 21.1082 119.68C19.3148 119.68 17.8608 121.131 17.8608 122.922C17.8608 124.713 19.3148 126.165 21.1082 126.165Z" fill="url(#paint4_linear_7885_3252)"/>
<path d="M48.7087 76.7156H21.1058C19.4821 76.7156 17.8584 75.0943 17.8584 73.473C17.8584 71.8518 19.4821 70.2305 21.1058 70.2305H48.7087C50.3323 70.2305 51.9561 71.8518 51.9561 73.473C51.9561 75.9049 50.3323 76.7156 48.7087 76.7156Z" fill="url(#paint5_linear_7885_3252)"/>
<path d="M12.1768 77.5281C13.9703 77.5281 15.4242 76.0763 15.4242 74.2855C15.4242 72.4947 13.9703 71.043 12.1768 71.043C10.3833 71.043 8.92944 72.4947 8.92944 74.2855C8.92944 76.0763 10.3833 77.5281 12.1768 77.5281Z" fill="url(#paint6_linear_7885_3252)"/>
<path d="M15.4239 89.6843C17.2174 89.6843 18.6713 88.2326 18.6713 86.4418C18.6713 84.651 17.2174 83.1992 15.4239 83.1992C13.6304 83.1992 12.1765 84.651 12.1765 86.4418C12.1765 88.2326 13.6304 89.6843 15.4239 89.6843Z" fill="url(#paint7_linear_7885_3252)"/>
<path d="M43.0256 89.6843H24.3531C22.7294 89.6843 21.1057 88.0631 21.1057 86.4418C21.1057 84.8205 22.7294 83.1992 24.3531 83.1992H43.0256C44.6493 83.1992 46.273 84.8205 46.273 86.4418C46.273 88.0631 44.6493 89.6843 43.0256 89.6843Z" fill="url(#paint8_linear_7885_3252)"/>
<path d="M12.1766 114.009C13.9701 114.009 15.424 112.557 15.424 110.766C15.424 108.975 13.9701 107.523 12.1766 107.523C10.3831 107.523 8.9292 108.975 8.9292 110.766C8.9292 112.557 10.3831 114.009 12.1766 114.009Z" fill="url(#paint9_linear_7885_3252)"/>
<path d="M43.0266 114.009H21.9185C20.2948 114.009 18.6711 112.387 18.6711 110.766C18.6711 109.145 20.2948 107.523 21.9185 107.523H43.0266C44.6503 107.523 46.274 109.145 46.274 110.766C45.4621 112.387 44.6503 114.009 43.0266 114.009Z" fill="url(#paint10_linear_7885_3252)"/>
<path d="M3.24741 101.848C5.0409 101.848 6.49482 100.397 6.49482 98.6058C6.49482 96.815 5.0409 95.3633 3.24741 95.3633C1.45392 95.3633 0 96.815 0 98.6058C0 100.397 1.45392 101.848 3.24741 101.848Z" fill="url(#paint11_linear_7885_3252)"/>
<path d="M39.7795 101.848H12.1766C10.5529 101.848 8.9292 100.227 8.9292 98.6058C8.9292 96.9846 10.5529 95.3633 12.1766 95.3633H39.7795C41.4031 95.3633 43.0269 96.9846 43.0269 98.6058C43.0269 100.227 41.4031 101.848 39.7795 101.848Z" fill="url(#paint12_linear_7885_3252)"/>
<path d="M74.5903 114.814V110.197L86.8386 98.1899C88.0101 97.007 88.9862 95.9562 89.7672 95.0374C90.5482 94.1186 91.1339 93.2286 91.5244 92.3672C91.9148 91.5059 92.1101 90.5871 92.1101 89.6109C92.1101 88.4969 91.8574 87.5437 91.3521 86.7512C90.8468 85.9473 90.1519 85.3271 89.2676 84.8907C88.3833 84.4543 87.3784 84.2361 86.2529 84.2361C85.093 84.2361 84.0766 84.4773 83.2037 84.9596C82.3309 85.4305 81.6533 86.1023 81.171 86.9752C80.7001 87.848 80.4647 88.8874 80.4647 90.0933H74.3835C74.3835 87.8537 74.8946 85.9071 75.9167 84.2533C76.9389 82.5995 78.3457 81.319 80.1373 80.4117C81.9404 79.5044 84.0077 79.0508 86.339 79.0508C88.7049 79.0508 90.7836 79.4929 92.5752 80.3773C94.3668 81.2616 95.7564 82.4732 96.7441 84.0121C97.7433 85.5511 98.2429 87.3082 98.2429 89.2836C98.2429 90.6043 97.9902 91.9021 97.4849 93.1769C96.9796 94.4517 96.0895 95.8643 94.8147 97.4147C93.5514 98.9651 91.777 100.843 89.4916 103.048L83.4105 109.232V109.474H98.7769V114.814H74.5903Z" fill="url(#paint13_linear_7885_3252)"/>
<path d="M115.618 93.7918H113.665V91.8021C113.665 90.5283 113.475 89.4624 113.096 88.6044C112.717 87.7464 112.189 87.1016 111.511 86.6699C110.834 86.2383 110.046 86.0225 109.15 86.0225C108.296 86.0225 107.527 86.2383 106.844 86.6699C106.167 87.1016 105.628 87.7464 105.227 88.6044C104.832 89.4624 104.635 90.5283 104.635 91.8021V93.7918H102.682V91.8021C102.682 90.2125 102.956 88.8439 103.506 87.6964C104.061 86.5489 104.824 85.6672 105.796 85.0513C106.772 84.4354 107.89 84.1275 109.15 84.1275C110.452 84.1275 111.586 84.4354 112.552 85.0513C113.523 85.6672 114.276 86.5489 114.809 87.6964C115.348 88.8439 115.618 90.2125 115.618 91.8021V93.7918ZM110.142 81.6641V93.7918H108.157V81.6641H110.142Z" fill="url(#paint14_linear_7885_3252)"/>
<defs>
<linearGradient id="paint0_linear_7885_3252" x1="-0.882306" y1="31" x2="186.158" y2="104.877" gradientUnits="userSpaceOnUse">
<stop stop-color="#89898A"/>
<stop offset="0.485" stop-color="white"/>
<stop offset="1" stop-color="#89898A"/>
</linearGradient>
<linearGradient id="paint1_linear_7885_3252" x1="79.6778" y1="174.903" x2="99.3604" y2="188.32" gradientUnits="userSpaceOnUse">
<stop stop-color="#89898A"/>
<stop offset="0.485" stop-color="white"/>
<stop offset="1" stop-color="#89898A"/>
</linearGradient>
<linearGradient id="paint2_linear_7885_3252" x1="30.0163" y1="71.4" x2="128.443" y2="138.523" gradientUnits="userSpaceOnUse">
<stop stop-color="#89898A"/>
<stop offset="0.485" stop-color="white"/>
<stop offset="1" stop-color="#89898A"/>
</linearGradient>
<linearGradient id="paint3_linear_7885_3252" x1="18.9044" y1="120.695" x2="24.8412" y2="136.378" gradientUnits="userSpaceOnUse">
<stop stop-color="#89898A"/>
<stop offset="0.485" stop-color="white"/>
<stop offset="1" stop-color="#89898A"/>
</linearGradient>
<linearGradient id="paint4_linear_7885_3252" x1="15.8259" y1="120.695" x2="24.1708" y2="126.384" gradientUnits="userSpaceOnUse">
<stop stop-color="#89898A"/>
<stop offset="0.485" stop-color="white"/>
<stop offset="1" stop-color="#89898A"/>
</linearGradient>
<linearGradient id="paint5_linear_7885_3252" x1="7.17501" y1="71.2458" x2="11.8221" y2="87.8772" gradientUnits="userSpaceOnUse">
<stop stop-color="#89898A"/>
<stop offset="0.485" stop-color="white"/>
<stop offset="1" stop-color="#89898A"/>
</linearGradient>
<linearGradient id="paint6_linear_7885_3252" x1="6.89451" y1="72.0583" x2="15.2394" y2="77.747" gradientUnits="userSpaceOnUse">
<stop stop-color="#89898A"/>
<stop offset="0.485" stop-color="white"/>
<stop offset="1" stop-color="#89898A"/>
</linearGradient>
<linearGradient id="paint7_linear_7885_3252" x1="10.1416" y1="84.2146" x2="18.4864" y2="89.9033" gradientUnits="userSpaceOnUse">
<stop stop-color="#89898A"/>
<stop offset="0.485" stop-color="white"/>
<stop offset="1" stop-color="#89898A"/>
</linearGradient>
<linearGradient id="paint8_linear_7885_3252" x1="13.2204" y1="84.2146" x2="19.1572" y2="99.8971" gradientUnits="userSpaceOnUse">
<stop stop-color="#89898A"/>
<stop offset="0.485" stop-color="white"/>
<stop offset="1" stop-color="#89898A"/>
</linearGradient>
<linearGradient id="paint9_linear_7885_3252" x1="6.89427" y1="108.539" x2="15.2391" y2="114.227" gradientUnits="userSpaceOnUse">
<stop stop-color="#89898A"/>
<stop offset="0.485" stop-color="white"/>
<stop offset="1" stop-color="#89898A"/>
</linearGradient>
<linearGradient id="paint10_linear_7885_3252" x1="10.0227" y1="108.539" x2="15.5526" y2="124.56" gradientUnits="userSpaceOnUse">
<stop stop-color="#89898A"/>
<stop offset="0.485" stop-color="white"/>
<stop offset="1" stop-color="#89898A"/>
</linearGradient>
<linearGradient id="paint11_linear_7885_3252" x1="-2.03494" y1="96.3786" x2="6.30992" y2="102.067" gradientUnits="userSpaceOnUse">
<stop stop-color="#89898A"/>
<stop offset="0.485" stop-color="white"/>
<stop offset="1" stop-color="#89898A"/>
</linearGradient>
<linearGradient id="paint12_linear_7885_3252" x1="-1.75419" y1="96.3786" x2="2.89289" y2="113.01" gradientUnits="userSpaceOnUse">
<stop stop-color="#89898A"/>
<stop offset="0.485" stop-color="white"/>
<stop offset="1" stop-color="#89898A"/>
</linearGradient>
<linearGradient id="paint13_linear_7885_3252" x1="66.7407" y1="84.6501" x2="104.507" y2="102.184" gradientUnits="userSpaceOnUse">
<stop stop-color="#89898A"/>
<stop offset="0.485" stop-color="white"/>
<stop offset="1" stop-color="#89898A"/>
</linearGradient>
<linearGradient id="paint14_linear_7885_3252" x1="98.6285" y1="83.5629" x2="114.57" y2="95.1373" gradientUnits="userSpaceOnUse">
<stop stop-color="#89898A"/>
<stop offset="0.485" stop-color="white"/>
<stop offset="1" stop-color="#89898A"/>
</linearGradient>
</defs>
</svg>
